<?xml version="1.0" encoding="utf-8"?>
<!-- Generator: Adobe Illustrator 24.0.0, SVG Export Plug-In . SVG Version: 6.00 Build 0)  -->
<svg version="1.1" id="Layer_1" xmlns="http://www.w3.org/2000/svg" xmlns:xlink="http://www.w3.org/1999/xlink" x="0px" y="0px"
	 viewBox="0 0 358 358" style="enable-background:new 0 0 358 358;" xml:space="preserve">
<style type="text/css">
	.st0{fill:#9D0A10;}
</style>
<path class="st0" d="M251.6,340l-12,18l-4.4-2.1l-14.6-7C106.5,291.3-25.9,146.7,4.4,14l1.7-7.5l7.7-1.8c5.5-1.3,11.6-2.1,17.3-2.8
	c14.7-1.7,29.6-2.1,44.4-1.7c51,1.6,101.5,14.5,147.9,35.1c36.7,16.3,79.4,38,109.3,65c8,7.2,20.6,20.1,24.1,30.5l1.2,3.5l-1,3.6
	c-3.3,11.8-7.6,23.9-11.9,35.3c-10.2,27-22.6,53.6-37,78.8c-16.9,29.6-34.6,60.2-55.7,87.2C252.1,339.4,251.8,339.7,251.6,340z"/>
</svg>
